<?xml version="1.0" encoding="UTF-8"?>
<svg id="Layer_1" data-name="Layer 1" xmlns="http://www.w3.org/2000/svg" version="1.1" viewBox="0 0 400 400">
  <defs>
    <style>
      .cls-1 {
        fill: #fff;
        stroke-width: 0px;
      }
    </style>
  </defs>
  <path class="cls-1" d="M125.6,126.2c-40.8,40.8-40.8,107.1,0,147.9,40.8,40.8,107.1,40.8,147.9,0,40.8-40.8,40.8-107.1,0-147.9-40.8-40.8-107.1-40.8-147.9,0ZM259.6,260.2c-33.2,33.2-86.9,33.2-120.1,0-33.2-33.2-33.2-86.9,0-120.1,33.2-33.2,86.9-33.2,120.1,0,33.2,33.2,33.2,86.9,0,120.1Z"/>
  <circle class="cls-1" cx="199.6" cy="200.2" r="69.3" transform="translate(-43.9 343.8) rotate(-75.6)"/>
  <path class="cls-1" d="M75.4,344c18.6,16.1,39.6,28,61.7,35.6l12.7-47.5c-14.1-5.3-27.5-12.9-39.6-22.9l-34.8,34.8Z"/>
  <path class="cls-1" d="M308.6,289.6l34.8,34.8c16.1-18.6,28-39.6,35.6-61.7l-47.5-12.7c-5.3,14.1-12.9,27.5-22.9,39.6Z"/>
  <path class="cls-1" d="M149.8,68.2l-12.7-47.5c-22.1,7.7-43.1,19.6-61.7,35.6l34.8,34.8c12.1-10,25.5-17.6,39.6-22.9Z"/>
  <path class="cls-1" d="M67.6,249.9l-47.5,12.7c7.7,22.1,19.6,43.1,35.6,61.7l34.8-34.8c-10-12.1-17.6-25.5-22.9-39.6Z"/>
  <path class="cls-1" d="M90.5,110.8l-34.8-34.8c-16.1,18.6-28,39.6-35.6,61.7l47.5,12.7c5.3-14.1,12.9-27.5,22.9-39.6Z"/>
  <path class="cls-1" d="M249.3,332.1l12.7,47.5c22.1-7.7,43.1-19.6,61.7-35.6l-34.8-34.8c-12.1,10-25.5,17.6-39.6,22.9Z"/>
  <path class="cls-1" d="M176.7,339.3l-12.7,47.5c23.5,4.5,47.7,4.5,71.2,0l-12.7-47.5c-15.1,2.5-30.6,2.5-45.8,0Z"/>
  <path class="cls-1" d="M386.2,164.6l-47.5,12.7c2.5,15.1,2.5,30.6,0,45.8l47.5,12.7c4.5-23.5,4.5-47.7,0-71.2Z"/>
  <path class="cls-1" d="M60.4,177.3l-47.5-12.7c-4.5,23.5-4.5,47.7,0,71.2l47.5-12.7c-2.5-15.1-2.5-30.6,0-45.8Z"/>
  <path class="cls-1" d="M222.4,61l12.7-47.5c-23.5-4.5-47.7-4.5-71.2,0l12.7,47.5c15.1-2.5,30.6-2.5,45.8,0Z"/>
  <path class="cls-1" d="M331.5,150.4l47.5-12.7c-7.7-22.1-19.6-43.1-35.6-61.7l-34.8,34.8c10,12.1,17.6,25.5,22.9,39.6Z"/>
  <path class="cls-1" d="M323.7,56.3c-18.6-16.1-39.6-28-61.7-35.6l-12.7,47.5c14.1,5.3,27.5,12.9,39.6,22.9l34.8-34.8Z"/>
</svg>