<?xml version="1.0" encoding="UTF-8"?>
<svg id="katman_1" data-name="katman 1" xmlns="http://www.w3.org/2000/svg" version="1.1" viewBox="0 0 407.7 92">
  <defs>
    <style>
      .cls-1 {
        fill: #e50b14;
      }

      .cls-1, .cls-2 {
        stroke-width: 0px;
      }

      .cls-2 {
        fill: #fafafa;
      }
    </style>
  </defs>
  <rect class="cls-2" x="7.9" y="10.7" width="186.4" height="72.5"/>
  <g>
    <path class="cls-2" d="M401.4,2v3.3h-190.5v-3.3h190.5ZM210.9,91.9h190.5v-3.3h-190.5v3.3ZM211,59.2v9.2c0,8,3.9,12.1,12.1,12.1h2.1c8.1,0,12.3-4,12.3-12.3v-9.6c0-5.7-1.5-8.8-6.3-12.3l-9.2-6.6c-2.2-1.5-3.4-3-3.4-6.3v-8.2c0-3.4,1.5-4.9,4.9-4.9h1.3c3.4,0,4.9,1.5,4.9,4.9v5.9h7.3v-5.7c0-8-3.9-12.1-12.1-12.1h-1.9c-8.1,0-12.3,4-12.3,12.3v7.9c0,5.4,1.4,8.8,6.3,12.3l9.2,6.7c2.2,1.5,3.3,3,3.3,6.3v9.9c0,3.4-1.5,4.9-4.9,4.9h-1.3c-3.4,0-4.9-1.5-4.9-4.9v-9.5h-7.4ZM256.5,79.8V20.9h9.9v-7h-27.3v7h9.9v58.9h7.5ZM269.2,14.1v54.1c0,8.1,4,12.3,12.3,12.3h2.4c8.1,0,12.3-4,12.3-12.3V14.1h-7.5v54.5c0,3.4-1.5,4.9-4.9,4.9h-1.8c-3.4,0-4.9-1.5-4.9-4.9V14.1h-7.9ZM313.2,79.8h-12.4V13.9h12.4c9.9,0,14.5,4.7,14.5,14.5v36.7c.1,10-4.6,14.6-14.5,14.6h0ZM320.3,28.5c0-5.1-2.4-7.6-7.4-7.6h-4.5v52.1h4.5c5.1,0,7.4-2.6,7.4-7.6V28.6h0ZM332.3,14.1v65.9h7.5V14.1h-7.5ZM356.6,80.5c-8.1,0-12.3-4-12.3-12.3V25.7c0-8.1,4-12.3,12.3-12.3h2.8c8.1,0,12.3,4,12.3,12.3v42.5c0,8.1-4,12.3-12.3,12.3h-2.8ZM356.9,73.5h2.3c3.4,0,4.9-1.5,4.9-4.9V25.3c0-3.4-1.5-4.9-4.9-4.9h-2.3c-3.4,0-4.9,1.6-4.9,4.9v43.3c0,3.4,1.5,4.9,4.9,4.9ZM374.9,59.2v9.2c0,8,3.9,12.1,12.1,12.1h2.1c8.1,0,12.3-4,12.3-12.3v-9.6c0-5.7-1.5-8.8-6.3-12.3l-9.2-6.6c-2.2-1.5-3.4-3-3.4-6.3v-8.2c0-3.4,1.5-4.9,4.9-4.9h1.3c3.4,0,4.9,1.5,4.9,4.9v5.9h7.3v-5.7c0-8-3.9-12.1-12.1-12.1h-1.9c-8.1,0-12.3,4-12.3,12.3v7.9c0,5.4,1.4,8.8,6.3,12.3l9.2,6.7c2.2,1.5,3.3,3,3.3,6.3v9.9c0,3.4-1.5,4.9-4.9,4.9h-1.3c-3.4,0-4.9-1.5-4.9-4.9v-9.5h-7.4Z"/>
    <path class="cls-1" d="M0,2v90h199.7V2H0ZM169.3,26h-10.6v14.8h10.6v12.1h-10.6v15.1h10.6v11.9h-22.5V20.2l-9.5,59.7h-13.8s-7.1-42.3-7.1-42.4c1.1,6.8-3.2,13.9-6.9,16.8l7.5,25.6h-11.6l-5.7-21.8-2.8.4v21.3h-22.5l-1.3-10.1h-9.3l-1.3,10.1h-23.1v-31.8l-5.4,31.8h-6.3l-5.4-31.8v31.8h-12V13.9h15.1l5.3,34,5.5-34h15.1v60.5l9.1-60.5h15.8l8.8,58.5V13.9h12.1c10.8,0,15.8,7.9,17.2,10.7l-1.3-10.7h12.1l5.5,40.1,5.5-40.1h33.4v12.1h.1-.3ZM193.2,79.8h-21.9V14h11.8v54h10.1v11.8ZM104.7,36.2c0,5.4-2.4,8.7-5.2,10-.9.4-1.9.6-2.8.6v-21.1h.1c.9,0,7.8.3,7.8,10.5h0ZM68.3,31.1l3.4,28.1h-6.7l3.3-28.1Z"/>
  </g>
</svg>